<?xml version="1.0" encoding="UTF-8" standalone="no"?><!DOCTYPE svg PUBLIC "-//W3C//DTD SVG 1.1//EN" "http://www.w3.org/Graphics/SVG/1.1/DTD/svg11.dtd"><svg width="100%" height="100%" viewBox="0 0 2084 1002" version="1.1" xmlns="http://www.w3.org/2000/svg" xmlns:xlink="http://www.w3.org/1999/xlink" xml:space="preserve" xmlns:serif="http://www.serif.com/" style="fill-rule:evenodd;clip-rule:evenodd;stroke-linejoin:round;stroke-miterlimit:2;"><path d="M1950.906,895.411c-14.567,-7.811 -32.205,-7.811 -46.772,0c-7.016,3.828 -12.848,9.465 -16.868,16.305c-8.263,14.669 -8.263,32.555 0,47.224c4.004,6.865 9.838,12.522 16.868,16.354c14.567,7.811 32.205,7.811 46.772,-0c7.018,-3.822 12.831,-9.483 16.793,-16.354c8.196,-14.687 8.196,-32.537 0,-47.224c-3.977,-6.847 -9.787,-12.488 -16.793,-16.305Zm3.656,57.34c-2.462,4.835 -6.3,8.861 -11.044,11.582c-9.996,5.429 -22.152,5.429 -32.148,0c-4.732,-2.736 -8.566,-6.758 -11.044,-11.582c-5.293,-11.005 -5.293,-23.792 -0,-34.797c2.489,-4.791 6.323,-8.778 11.044,-11.483c10.031,-5.297 22.117,-5.297 32.148,0c4.733,2.69 8.571,6.681 11.044,11.483c5.325,10.997 5.325,23.799 0,34.797Z" style="fill:#2d2d2d;fill-rule:nonzero;"/><path d="M2046.215,933.737c-4.78,-1.983 -9.691,-3.644 -14.7,-4.971c-3.63,-0.918 -7.208,-2.03 -10.716,-3.331c-2.436,-0.92 -4.639,-2.354 -6.455,-4.2c-1.725,-1.829 -2.634,-4.266 -2.521,-6.76c-0.221,-3.543 1.277,-6.987 4.034,-9.271c2.996,-2.251 6.701,-3.395 10.464,-3.231c4.086,-0.188 8.112,1.044 11.372,3.48c2.696,2.009 4.402,5.057 4.69,8.376l16.49,0c-0.336,-7.003 -3.754,-13.524 -9.354,-17.846c-6.25,-4.53 -13.883,-6.828 -21.634,-6.512c-5.607,-0.107 -11.174,0.952 -16.339,3.107c-4.446,1.854 -8.256,4.936 -10.968,8.873c-2.667,4.02 -4.039,8.743 -3.933,13.546c-0.243,4.772 1.142,9.49 3.933,13.397c2.45,3.254 5.718,5.824 9.48,7.456c4.681,1.919 9.502,3.49 14.422,4.698c3.744,0.906 7.432,2.027 11.044,3.355c2.538,0.933 4.825,2.43 6.682,4.374c1.857,2.037 2.819,4.721 2.673,7.456c0.097,3.636 -1.492,7.124 -4.312,9.47c-3.426,2.614 -7.702,3.913 -12.027,3.654c-4.198,0.258 -8.34,-1.077 -11.573,-3.728c-2.736,-2.472 -4.399,-5.893 -4.639,-9.544l-16.036,0c-0.104,4.839 1.362,9.586 4.186,13.546c2.923,3.969 6.902,7.067 11.498,8.948c5.204,2.174 10.813,3.249 16.465,3.157c5.818,0.147 11.585,-1.116 16.793,-3.678c4.459,-2.183 8.214,-5.549 10.842,-9.718c2.439,-3.863 3.732,-8.324 3.732,-12.875c0.253,-4.843 -1.151,-9.631 -3.984,-13.596c-2.484,-3.315 -5.793,-5.943 -9.607,-7.63Z" style="fill:#2d2d2d;fill-rule:nonzero;"/><rect id="Mesa-de-trabajo1" serif:id="Mesa de trabajo1" x="0" y="0" width="2083.73" height="1001.309" style="fill:none;"/><path d="M1002.582,267.631c24.542,0 45.965,-4.515 64.271,-13.546c17.528,-8.33 32.338,-21.344 42.738,-37.555c10.203,-16.006 15.305,-34.739 15.305,-56.196c0,-20.083 -4.32,-37.282 -12.96,-51.598c-8.644,-14.304 -21.48,-25.7 -36.812,-32.684c-15.885,-7.506 -35.216,-11.251 -57.992,-11.234l-178.843,0l0,14.913l60.514,11.234l-5.194,283.02c-11.134,0.759 -22.208,2.212 -33.156,4.35c-7.739,1.476 -15.238,3.984 -22.289,7.456l0,13.794l173.094,0l0,-15.335l-71.431,-10.364l0,-106.254l62.758,0Zm4.665,-174.207c24.172,0 42.57,5.957 55.193,17.871c12.624,11.914 18.927,29.453 18.911,52.617c0.355,14.655 -3.313,29.135 -10.615,41.905c-7.077,11.93 -18.398,22.999 -33.963,33.206l-96.948,0l0,-145.599l67.422,-0Z" style="fill:#2d2d2d;fill-rule:nonzero;"/><path d="M1207.622,95.463c7.323,-1.176 14.356,-3.706 20.726,-7.456c6.532,-3.606 12.329,-8.377 17.095,-14.068c-1.183,-7.136 -3.751,-13.98 -7.564,-20.157c-3.874,-6.519 -8.671,-12.461 -14.246,-17.647c-7.379,1.413 -14.474,4.007 -21.003,7.68c-6.533,3.597 -12.399,8.262 -17.347,13.794c1.442,7.297 4.155,14.294 8.018,20.679c3.806,6.446 8.642,12.246 14.322,17.175Z" style="fill:#2d2d2d;fill-rule:nonzero;"/><path d="M1276.028,386.66l-38.855,-9.693l0,-231.944c-11.563,1.26 -22.951,3.76 -33.963,7.456c-10.727,3.658 -21.057,8.363 -30.837,14.043l26.954,33.206l-4.665,176.27c-6.61,0.939 -13.117,2.479 -19.44,4.598c-5.73,1.915 -11.353,4.13 -16.843,6.636l0,12.253l117.649,0l0,-12.825Z" style="fill:#2d2d2d;fill-rule:nonzero;"/><path d="M1421.84,386.66l-38.855,-9.693l0,-359.175c-11.586,1.249 -22.984,3.827 -33.963,7.68c-10.629,3.797 -20.939,8.409 -30.837,13.794l27.988,35.766l-5.698,300.916c-7.129,1.037 -14.15,2.7 -20.978,4.971c-5.698,2.038 -10.817,4.101 -15.305,6.139l0,12.253l117.649,0l0,-12.651Z" style="fill:#2d2d2d;fill-rule:nonzero;"/><path d="M1681.898,384.1c4.883,-6.638 8.161,-14.29 9.581,-22.369l-51.311,2.485l0,-177.313c-11.372,-12.967 -25.418,-23.398 -41.2,-30.596c-16.016,-7.221 -33.447,-10.887 -51.058,-10.737c-15.599,-0.153 -31.084,2.649 -45.612,8.252c-12.65,4.616 -23.971,12.2 -32.98,22.096c-7.769,8.482 -12.105,19.492 -12.178,30.919c-0.196,8.081 3.021,15.89 8.875,21.549c5.866,5.799 14.683,9.718 26.449,11.756l8.346,-65.442c5.449,-0.624 10.929,-0.956 16.414,-0.994c33.619,0 61.959,9.022 85.022,27.067l-2.194,54.134c-28.122,6.843 -51.579,13.065 -70.372,18.666c-16.77,4.661 -33.075,10.818 -48.713,18.392c-11.414,5.965 -19.364,12.593 -23.852,19.884c-4.574,7.648 -6.905,16.401 -6.732,25.277c-0,19.751 7.169,35.849 21.508,48.293c14.338,12.444 33.425,18.832 57.261,19.163c14.902,-5.603 29.011,-13.071 41.981,-22.22c9.214,-6.709 18.012,-13.954 26.349,-21.698c3.631,13.049 9.354,23.189 17.448,30.124c8.297,7.512 19.162,11.684 30.427,11.684c14.417,0 27.988,-6.832 36.44,-18.345l0.101,-0.025Zm-112.732,-20.157c-10.514,3.756 -21.596,5.739 -32.778,5.866c-14.17,0 -24.626,-3.745 -31.366,-11.234c-6.741,-7.49 -10.102,-18.392 -10.086,-32.709c0.043,-5.301 0.473,-10.592 1.286,-15.832c0.587,-4.058 1.429,-8.075 2.521,-12.03l100.2,-19.014l-2.9,71.756c-8.441,5.358 -17.455,9.784 -26.878,13.198Z" style="fill:#2d2d2d;fill-rule:nonzero;"/><path d="M1843.872,386.66l-57.009,-11.234l0,-166.924c28.393,-15.146 60.542,-22.123 92.762,-20.132l2.093,-30.646c-4.838,-3.06 -10.07,-5.468 -15.557,-7.158c-5.73,-1.748 -11.659,-2.784 -17.65,-3.082c-12.088,6.824 -23.539,14.692 -34.215,23.513c-9.917,8.292 -19.188,17.306 -27.735,26.967l-3.858,-53.015c-21.421,3.096 -41.998,10.39 -60.514,21.45l26.954,33.206l-4.665,176.27c-6.956,1.077 -13.806,2.74 -20.474,4.971c-5.698,2.038 -10.968,4.101 -15.809,6.139l0,12.253l135.803,0l-0.126,-12.576Z" style="fill:#2d2d2d;fill-rule:nonzero;"/><path d="M1068.416,491.845l58.572,9.718l4.866,257.694l-189.382,-282.325l-104.184,0l0,14.913l60.514,11.234l-5.194,283.045c-8.976,1.011 -18.045,2.452 -27.206,4.325c-9.385,1.95 -18.646,4.439 -27.735,7.456l0,13.794l152.393,0l0,-15.335l-63.766,-10.215l0,-254.711l188.273,280.137l44.578,0l0.504,-309.615c9.235,-1.007 18.403,-2.543 27.458,-4.598c9.01,-2.038 18.171,-4.424 27.483,-7.158l0,-13.272l-147.174,0l0,14.913Z" style="fill:#2d2d2d;fill-rule:nonzero;"/><path d="M1424.261,753.068c9.867,-19.933 14.801,-43.214 14.801,-69.842c0,-25.203 -4.665,-47.166 -13.994,-65.89c-8.629,-17.878 -22.114,-33.056 -38.956,-43.844c-16.591,-10.555 -36.115,-15.832 -58.572,-15.832c-21.232,-0.39 -42.106,5.479 -59.934,16.851c-17.57,11.609 -31.536,27.794 -40.342,46.752c-9.682,19.884 -14.523,43.131 -14.523,69.742c0,25.203 4.496,47.166 13.489,65.89c8.194,17.85 21.409,33.016 38.073,43.695c16.406,10.389 35.669,15.584 57.791,15.584c23.533,0 44.007,-5.543 61.421,-16.628c17.7,-11.456 31.812,-27.555 40.746,-46.478Zm-61.421,23.761c-10.822,8.208 -24.169,12.532 -37.821,12.253c-13.376,0.257 -26.45,-3.978 -37.065,-12.005c-10.539,-8.003 -18.835,-19.602 -24.886,-34.797c-6.051,-15.195 -9.069,-33.156 -9.052,-53.885c-0.106,-17.255 2.159,-34.445 6.732,-51.101c3.788,-13.282 8.802,-26.194 14.977,-38.574c5.85,-2.557 11.834,-4.805 17.927,-6.736c9.761,-3.221 19.965,-4.948 30.257,-5.12c13.892,-0.281 27.515,3.841 38.855,11.756c11.708,8.538 20.688,20.211 25.87,33.628c6.035,14.631 9.052,32.51 9.052,53.636c0,21.441 -3.11,39.917 -9.329,55.426c-6.219,15.509 -14.725,27.348 -25.517,35.517Z" style="fill:#2d2d2d;fill-rule:nonzero;"/><path d="M1598.389,798.801l-57.034,-11.185l0,-166.924c28.403,-15.144 60.559,-22.121 92.788,-20.132l2.068,-30.646c-4.841,-3.055 -10.072,-5.462 -15.557,-7.158c-5.734,-1.729 -11.662,-2.755 -17.65,-3.057c-12.085,6.807 -23.528,14.668 -34.19,23.488c-9.911,8.299 -19.181,17.313 -27.735,26.967l-3.833,-53.015c-21.422,3.092 -41.999,10.386 -60.514,21.45l26.954,33.231l-4.665,176.245c-6.965,1.107 -13.816,2.82 -20.474,5.12c-5.698,2.038 -10.968,4.076 -15.809,6.114l0,12.278l135.803,0l-0.151,-12.775Z" style="fill:#2d2d2d;fill-rule:nonzero;"/><path d="M1828.391,587.287l2.521,-24.01l-88.022,0l0,-42.402c-14.146,7.586 -27.586,16.385 -40.166,26.296c-12.224,9.66 -23.742,20.158 -34.468,31.416l0,8.699l37.821,0l-6.228,194.637c4.995,11.053 13.695,20.086 24.634,25.575c11.27,5.807 23.818,8.795 36.535,8.699c9.08,-0.025 18.096,-1.494 26.702,-4.35c8.739,-2.837 16.961,-7.032 24.357,-12.427c7.471,-5.508 13.726,-12.46 18.381,-20.431l-87.568,1.019l0,-192.723l85.501,0Z" style="fill:#2d2d2d;fill-rule:nonzero;"/><path d="M1979.549,782.944c-26.609,0 -47.688,-8.509 -63.237,-25.526c-13.229,-14.515 -20.793,-34.399 -22.693,-59.651c18.305,-0.398 35.3,-1.069 51.008,-2.013c19.852,-1.193 38.855,-2.726 57.009,-4.598c18.154,-1.872 37.048,-4.515 56.681,-7.929l1.563,-33.206c0.383,-16.777 -3.537,-33.382 -11.397,-48.268c-7.34,-13.493 -18.456,-24.631 -32.022,-32.087c-14.779,-7.906 -31.398,-11.874 -48.209,-11.508c-22.827,0 -42.78,5.625 -59.858,16.876c-17.463,11.652 -31.218,27.952 -39.662,47c-9.636,21.548 -14.411,44.904 -13.994,68.45c0,24.855 4.412,46.735 13.237,65.641c7.885,17.847 20.804,33.093 37.216,43.918c16.753,10.586 36.333,16.013 56.227,15.584c17.807,-0.045 35.396,-3.877 51.563,-11.234c17.594,-8.092 33.5,-19.355 46.898,-33.206l-3.076,-7.655c-28.71,12.958 -54.462,19.428 -77.256,19.412Zm-80.861,-141.672c3.693,-14.198 9.271,-27.854 16.591,-40.613c7.558,-4.409 15.659,-7.842 24.105,-10.215c7.827,-2.293 15.94,-3.498 24.105,-3.579c17.633,0 31.921,5.708 42.864,17.125c10.943,11.417 16.381,26.661 16.313,45.733l-1.034,22.369l-128.188,1.839c0.698,-11.058 2.454,-22.026 5.245,-32.758l0,0.099Z" style="fill:#2d2d2d;fill-rule:nonzero;"/><path d="M893.38,896.182c-7.912,-3.783 -16.624,-5.657 -25.416,-5.468l-29.677,0l0,89.477l29.677,0c8.78,0.189 17.485,-1.65 25.416,-5.369c7.049,-3.351 12.917,-8.712 16.843,-15.385c4.116,-7.23 6.172,-15.424 5.951,-23.711c0.202,-8.341 -1.852,-16.586 -5.951,-23.885c-3.914,-6.75 -9.778,-12.202 -16.843,-15.658Zm-0.983,63.578c-5.665,5.667 -13.809,8.509 -24.432,8.525l-14.775,0l0,-65.592l14.775,0c10.607,0 18.751,2.925 24.432,8.774c5.682,5.849 8.514,13.96 8.497,24.333c0,10.323 -2.832,18.31 -8.497,23.96Z" style="fill:#2d2d2d;fill-rule:nonzero;"/><path d="M944.464,980.265l50.176,0l0,-11.98l-35.274,0l0,-27.464l31.366,0l0,-11.98l-31.366,0l0,-26.271l35.274,0l0,-11.98l-50.176,0l0,89.676Z" style="fill:#2d2d2d;fill-rule:nonzero;"/><path d="M1077.19,894.268c-5.528,-2.505 -11.568,-3.721 -17.65,-3.554l-31.467,-0l0,89.477l14.876,0l0,-36.263l16.49,0c6.367,0.24 12.697,-1.066 18.431,-3.803c4.424,-2.19 8.067,-5.659 10.439,-9.942c2.17,-3.953 3.297,-8.38 3.278,-12.875c0.059,-4.745 -1.187,-9.418 -3.606,-13.521c-2.558,-4.159 -6.315,-7.474 -10.792,-9.519Zm-5.043,33.877c-3.567,2.784 -8.071,4.142 -12.607,3.803l-16.49,0l0,-29.254l16.49,0c11.229,0 16.843,4.896 16.843,14.689c0.241,4.021 -1.306,7.953 -4.236,10.762Z" style="fill:#2d2d2d;fill-rule:nonzero;"/><path d="M1137.275,890.589l-32.526,89.676l15.532,0l6.556,-18.293l38.023,0l6.53,18.293l15.683,0l-32.551,-89.676l-17.246,0Zm-6.278,59.403l14.901,-41.632l14.775,41.632l-29.677,0Z" style="fill:#2d2d2d;fill-rule:nonzero;"/><path d="M1272.649,933.414c3.395,-4.625 5.206,-10.199 5.169,-15.907c0.059,-4.745 -1.187,-9.418 -3.606,-13.521c-2.576,-4.199 -6.347,-7.561 -10.842,-9.668c-5.52,-2.533 -11.563,-3.766 -17.65,-3.604l-31.467,0l0,89.477l14.901,0l0,-35.741l11.372,0l20.928,35.816l17.776,0l-22.491,-37.108c6.337,-1.208 12.004,-4.679 15.91,-9.743Zm-43.469,-0.696l0,-30.024l16.465,0c4.556,-0.335 9.073,1.072 12.607,3.927c2.892,2.881 4.414,6.839 4.186,10.886c0.201,4.111 -1.333,8.126 -4.236,11.085c-3.475,2.976 -8.017,4.462 -12.607,4.126l-16.414,0Z" style="fill:#2d2d2d;fill-rule:nonzero;"/><path d="M1303.763,902.694l24.306,0l0,77.572l14.901,0l0,-77.572l24.18,0l0,-11.98l-63.388,0l0,11.98Z" style="fill:#2d2d2d;fill-rule:nonzero;"/><path d="M1412.814,890.589l-32.526,89.676l15.557,0l6.53,-18.293l38.023,0l6.53,18.293l15.708,0l-32.551,-89.676l-17.272,0Zm-6.253,59.403l14.851,-41.632l14.75,41.632l-29.601,0Z" style="fill:#2d2d2d;fill-rule:nonzero;"/><path d="M1537.774,960.928l-31.896,-70.215l-16.061,0l0,89.551l14.876,0l0,-61.341l27.861,61.341l10.313,0l27.71,-61.341l0,61.341l14.901,0l0,-89.551l-15.935,0l-31.77,70.215Z" style="fill:#2d2d2d;fill-rule:nonzero;"/><path d="M1618.131,980.265l50.201,0l0,-11.98l-35.3,0l0,-27.464l31.391,0l0,-11.98l-31.391,0l0,-26.271l35.3,0l0,-11.98l-50.201,0l0,89.676Z" style="fill:#2d2d2d;fill-rule:nonzero;"/><path d="M1759.431,957.324l-44.831,-66.735l-14.901,0l0,89.676l14.901,0l0,-66.884l44.831,66.884l14.901,0l0,-89.676l-14.901,0l0,66.735Z" style="fill:#2d2d2d;fill-rule:nonzero;"/><path d="M1801.135,902.694l24.306,0l0,77.572l14.901,0l0,-77.572l24.18,0l0,-11.98l-63.388,0l0,11.98Z" style="fill:#2d2d2d;fill-rule:nonzero;"/><path d="M142.406,426.751l-118.531,0l0,96.536l123.347,-70.19c-2.146,-8.677 -3.755,-17.476 -4.816,-26.346Z" style="fill:#2d2d2d;fill-rule:nonzero;"/><path d="M229.873,224.334l-93.443,-159.542l-112.555,0l0,110.902l161.899,92.136c12.579,-16.447 27.422,-31.086 44.099,-43.496Z" style="fill:#2d2d2d;fill-rule:nonzero;"/><path d="M158.442,313.861l-134.567,-76.577l0,136.129l118.506,0c2.481,-20.497 7.889,-40.546 16.061,-59.552Z" style="fill:#2d2d2d;fill-rule:nonzero;"/><path d="M498.831,529.078l-161.395,-91.863l0.076,318.289l161.319,-91.813l0,-134.613Z" style="fill:#2d2d2d;fill-rule:nonzero;"/><path d="M23.875,584.877l0,396.283l259.578,0l-0.126,-543.945l-259.452,147.662Z" style="fill:#2d2d2d;fill-rule:nonzero;"/><path d="M498.831,725.281l-161.294,91.788l0,47.249l161.294,-91.788l0,-47.249Z" style="fill:#2d2d2d;fill-rule:nonzero;"/><path d="M533.425,400.082c0,-91.586 -76.453,-166.949 -169.362,-166.949c-92.91,0 -169.362,75.364 -169.362,166.949c0.034,8.321 0.691,16.629 1.967,24.855l113.715,-64.622l204.233,116.221c12.357,-23.643 18.806,-49.857 18.81,-76.453Z" style="fill:#2d2d2d;fill-rule:nonzero;"/><path d="M336.983,181.584l0,-116.817l-138.072,0l77.785,132.625c19.243,-8.034 39.538,-13.355 60.287,-15.808Z" style="fill:#2d2d2d;fill-rule:nonzero;"/><path d="M529.189,64.792l-138.097,0l0,116.817c20.83,2.427 41.204,7.758 60.514,15.832l77.583,-132.65Z" style="fill:#2d2d2d;fill-rule:nonzero;"/><path d="M587.509,400.082c-0.031,17.273 -2.121,34.483 -6.228,51.275l134.845,-76.776l0,-144.157l-146.468,83.363c11.814,27.277 17.888,56.637 17.852,86.296Z" style="fill:#2d2d2d;fill-rule:nonzero;"/><path d="M552.941,632.896l64.472,-36.71l98.713,48.392l0,-208.382l-163.185,92.882l0,103.818Z" style="fill:#2d2d2d;fill-rule:nonzero;"/><path d="M552.941,694.486l0,47.249l64.472,-36.686l98.713,48.367l0,-49.262l-96.797,-47.448l-66.388,37.779Z" style="fill:#2d2d2d;fill-rule:nonzero;"/><path d="M591.669,64.792l-93.443,159.542c16.678,12.409 31.52,27.049 44.099,43.496l173.8,-98.922l0,-104.116l-124.456,0Z" style="fill:#2d2d2d;fill-rule:nonzero;"/><path d="M552.941,803.325l0,47.249l64.472,-36.686l98.713,48.392l0,-49.287l-96.797,-47.448l-66.388,37.779Z" style="fill:#2d2d2d;fill-rule:nonzero;"/><path d="M431.712,981.16l284.414,0l0,-59.303l-96.797,-47.472l-187.617,106.776Z" style="fill:#2d2d2d;fill-rule:nonzero;"/><path d="M498.831,834.12l-161.269,91.788l0,47.249l161.269,-91.788l0,-47.249Z" style="fill:#2d2d2d;fill-rule:nonzero;"/></svg>